<svg xmlns="http://www.w3.org/2000/svg" viewBox="0 0 1200 630" role="img" aria-labelledby="title desc">
  <title id="title">Sejong and Uigwe routing map</title>
  <desc id="desc">Sejong routes broad requests into research, decision, Uigwe planning, executor handoff, or direct action.</desc>
  <defs>
    <linearGradient id="bg" x1="0" x2="1" y1="0" y2="1">
      <stop offset="0%" stop-color="#f7fafc"/>
      <stop offset="55%" stop-color="#eef6f8"/>
      <stop offset="100%" stop-color="#f8f4ed"/>
    </linearGradient>
    <filter id="shadow" x="-20%" y="-20%" width="140%" height="140%">
      <feDropShadow dx="0" dy="10" stdDeviation="14" flood-color="#243746" flood-opacity="0.12"/>
    </filter>
    <style>
      .title { font: 700 54px ui-sans-serif, system-ui, -apple-system, BlinkMacSystemFont, "Segoe UI", sans-serif; fill: #17212b; }
      .subtitle { font: 400 22px ui-sans-serif, system-ui, -apple-system, BlinkMacSystemFont, "Segoe UI", sans-serif; fill: #43515f; }
      .label { font: 700 23px ui-sans-serif, system-ui, -apple-system, BlinkMacSystemFont, "Segoe UI", sans-serif; fill: #1b2733; }
      .small { font: 400 17px ui-sans-serif, system-ui, -apple-system, BlinkMacSystemFont, "Segoe UI", sans-serif; fill: #526272; }
      .tiny { font: 600 14px ui-sans-serif, system-ui, -apple-system, BlinkMacSystemFont, "Segoe UI", sans-serif; fill: #637281; letter-spacing: .04em; }
      .card { fill: #ffffff; stroke: #d7e0e6; stroke-width: 1.5; filter: url(#shadow); }
      .lane { fill: #ffffff; stroke-width: 1.5; filter: url(#shadow); }
      .arrow { fill: none; stroke: #72808d; stroke-width: 3; stroke-linecap: round; stroke-linejoin: round; marker-end: url(#arrowhead); }
    </style>
    <marker id="arrowhead" markerWidth="10" markerHeight="10" refX="8" refY="5" orient="auto">
      <path d="M 0 0 L 10 5 L 0 10 z" fill="#72808d"/>
    </marker>
  </defs>
  <rect width="1200" height="630" fill="url(#bg)"/>
  <text x="70" y="92" class="title">Sejong routes. Uigwe plans.</text>
  <text x="72" y="132" class="subtitle">A repo-local skill pair for research, decisions, formal planning, handoff, and direct action.</text>

  <rect x="70" y="210" width="260" height="160" rx="22" class="card"/>
  <text x="105" y="258" class="tiny">USER REQUEST</text>
  <text x="105" y="296" class="label">Broad, messy, or clear</text>
  <text x="105" y="328" class="small">The agent should not guess</text>
  <text x="105" y="352" class="small">whether planning is needed.</text>

  <rect x="470" y="190" width="260" height="200" rx="28" fill="#17324d" filter="url(#shadow)"/>
  <text x="515" y="247" style="font: 800 40px ui-sans-serif, system-ui; fill: #ffffff;">Sejong</text>
  <text x="516" y="287" style="font: 500 20px ui-sans-serif, system-ui; fill: #d9edf3;">front door router</text>
  <text x="516" y="328" style="font: 400 17px ui-sans-serif, system-ui; fill: #c5d7df;">Classify once, then execute</text>
  <text x="516" y="352" style="font: 400 17px ui-sans-serif, system-ui; fill: #c5d7df;">the selected lane.</text>

  <path d="M 333 290 C 382 290 415 290 463 290" class="arrow"/>

  <g>
    <rect x="845" y="78" width="250" height="78" rx="18" class="lane" stroke="#8bb7c7"/>
    <text x="875" y="112" class="label">Research Brief</text>
    <text x="875" y="138" class="small">facts, unknowns, evidence</text>

    <rect x="845" y="178" width="250" height="78" rx="18" class="lane" stroke="#d4a373"/>
    <text x="875" y="212" class="label">Decision Brief</text>
    <text x="875" y="238" class="small">options and recommendation</text>

    <rect x="845" y="278" width="250" height="78" rx="18" class="lane" stroke="#6279b8"/>
    <text x="875" y="312" class="label">Uigwe Plan</text>
    <text x="875" y="338" class="small">packets and goal tree</text>

    <rect x="845" y="378" width="250" height="78" rx="18" class="lane" stroke="#86a873"/>
    <text x="875" y="412" class="label">Executor Handoff</text>
    <text x="875" y="438" class="small">RalphExecutor artifacts</text>

    <rect x="845" y="478" width="250" height="78" rx="18" class="lane" stroke="#a989b5"/>
    <text x="875" y="512" class="label">Direct Action</text>
    <text x="875" y="538" class="small">do the clear task</text>
  </g>

  <path d="M 730 255 C 775 160 792 118 838 118" class="arrow"/>
  <path d="M 730 274 C 779 232 795 218 838 218" class="arrow"/>
  <path d="M 730 290 C 776 305 792 318 838 318" class="arrow"/>
  <path d="M 730 316 C 778 378 795 417 838 417" class="arrow"/>
  <path d="M 730 340 C 775 455 792 516 838 516" class="arrow"/>

  <text x="74" y="558" class="small">Install as a repo-local pair: .agents/skills/sejong + .agents/skills/uigwe + docs/sejong.</text>
</svg>
